<svg width="14" height="14" viewBox="0 0 14 14" fill="none" xmlns="http://www.w3.org/2000/svg">
<circle cx="7" cy="4" r="3" stroke="#545F7D" stroke-width="1.2"/>
<path fill-rule="evenodd" clip-rule="evenodd" d="M3.27238 12.1401C2.69601 12.1401 2.22941 11.6477 2.39104 11.0945C2.95314 9.17048 4.69023 7.78136 6.72558 7.78136H7.25286C8.35972 7.78136 9.37837 8.19217 10.1678 8.87642C10.3011 8.99195 10.469 9.06275 10.6454 9.06275V9.06275C11.1896 9.06275 11.4906 8.46197 11.0912 8.09229C10.0778 7.15433 8.73349 6.58136 7.25286 6.58136H6.72558C3.54912 6.58136 1 9.21845 1 12.4391V12.5659C1 12.8973 1.26863 13.1659 1.6 13.1659L1.60787 13.1658H6.48692C6.77018 13.1658 6.9998 12.9362 6.9998 12.653V12.653C6.9998 12.3697 6.77018 12.1401 6.48692 12.1401H3.27238Z" fill="#545F7D"/>
<path fill-rule="evenodd" clip-rule="evenodd" d="M9.79092 11.8022C9.92281 11.934 10.1418 11.9149 10.2488 11.7621L12.4004 8.68924C12.5905 8.4178 12.9646 8.35183 13.2361 8.5419C13.5075 8.73196 13.5735 9.10609 13.3834 9.37753L10.6302 13.3095C10.4402 13.5809 10.0661 13.6469 9.79461 13.4568C9.77825 13.4454 9.76264 13.4332 9.74778 13.4205C9.72708 13.4028 9.70518 13.3864 9.68229 13.3716C9.64721 13.349 9.61398 13.3223 9.58325 13.2915L7.68213 11.3904C7.44781 11.1561 7.44781 10.7762 7.68213 10.5419C7.91644 10.3076 8.29634 10.3076 8.53065 10.5419L9.79092 11.8022Z" fill="#545F7D"/>
</svg>
