<svg width="16" height="22" viewBox="0 0 16 22" fill="none" xmlns="http://www.w3.org/2000/svg">
<g clip-path="url(#clip0_55596_712)">
<path opacity="0.4" d="M14 2.66675H10.6667C11.3739 2.66675 12.0522 2.9477 12.5523 3.4478C13.0524 3.94789 13.3333 4.62617 13.3333 5.33341H2.66667C2.66667 4.62617 2.94762 3.94789 3.44772 3.4478C3.94781 2.9477 4.62609 2.66675 5.33333 2.66675H2C1.46957 2.66675 0.960859 2.87746 0.585786 3.25253C0.210714 3.62761 0 4.13632 0 4.66675L0 19.3334C0 19.8638 0.210714 20.3726 0.585786 20.7476C0.960859 21.1227 1.46957 21.3334 2 21.3334H14C14.5304 21.3334 15.0391 21.1227 15.4142 20.7476C15.7893 20.3726 16 19.8638 16 19.3334V4.66675C16 4.13632 15.7893 3.62761 15.4142 3.25253C15.0391 2.87746 14.5304 2.66675 14 2.66675V2.66675ZM4 17.6667C3.80222 17.6667 3.60888 17.6081 3.44443 17.4982C3.27998 17.3883 3.15181 17.2322 3.07612 17.0494C3.00043 16.8667 2.98063 16.6656 3.01921 16.4717C3.0578 16.2777 3.15304 16.0995 3.29289 15.9596C3.43275 15.8198 3.61093 15.7245 3.80491 15.686C3.99889 15.6474 4.19996 15.6672 4.38268 15.7429C4.56541 15.8186 4.72159 15.9467 4.83147 16.1112C4.94135 16.2756 5 16.469 5 16.6667C5.00033 16.7982 4.97469 16.9283 4.92455 17.0498C4.87441 17.1713 4.80077 17.2817 4.70784 17.3746C4.61492 17.4675 4.50455 17.5412 4.38307 17.5913C4.2616 17.6414 4.13141 17.6671 4 17.6667V17.6667ZM4 13.6667C3.80222 13.6667 3.60888 13.6081 3.44443 13.4982C3.27998 13.3883 3.15181 13.2322 3.07612 13.0494C3.00043 12.8667 2.98063 12.6656 3.01921 12.4717C3.0578 12.2777 3.15304 12.0995 3.29289 11.9596C3.43275 11.8198 3.61093 11.7245 3.80491 11.686C3.99889 11.6474 4.19996 11.6672 4.38268 11.7429C4.56541 11.8186 4.72159 11.9467 4.83147 12.1112C4.94135 12.2756 5 12.469 5 12.6667C5.00033 12.7982 4.97469 12.9283 4.92455 13.0498C4.87441 13.1713 4.80077 13.2817 4.70784 13.3746C4.61492 13.4675 4.50455 13.5412 4.38307 13.5913C4.2616 13.6414 4.13141 13.6671 4 13.6667V13.6667ZM4 9.66675C3.80222 9.66675 3.60888 9.6081 3.44443 9.49822C3.27998 9.38834 3.15181 9.23216 3.07612 9.04943C3.00043 8.86671 2.98063 8.66564 3.01921 8.47166C3.0578 8.27768 3.15304 8.09949 3.29289 7.95964C3.43275 7.81979 3.61093 7.72455 3.80491 7.68596C3.99889 7.64738 4.19996 7.66718 4.38268 7.74287C4.56541 7.81856 4.72159 7.94673 4.83147 8.11118C4.94135 8.27563 5 8.46897 5 8.66675C5.00033 8.79816 4.97469 8.92835 4.92455 9.04982C4.87441 9.1713 4.80077 9.28167 4.70784 9.37459C4.61492 9.46751 4.50455 9.54116 4.38307 9.5913C4.2616 9.64144 4.13141 9.66708 4 9.66675V9.66675ZM13.3333 17.0001C13.3333 17.0885 13.2982 17.1733 13.2357 17.2358C13.1732 17.2983 13.0884 17.3334 13 17.3334H7C6.91159 17.3334 6.82681 17.2983 6.7643 17.2358C6.70179 17.1733 6.66667 17.0885 6.66667 17.0001V16.3334C6.66667 16.245 6.70179 16.1602 6.7643 16.0977C6.82681 16.0352 6.91159 16.0001 7 16.0001H13C13.0884 16.0001 13.1732 16.0352 13.2357 16.0977C13.2982 16.1602 13.3333 16.245 13.3333 16.3334V17.0001ZM13.3333 13.0001C13.3333 13.0885 13.2982 13.1733 13.2357 13.2358C13.1732 13.2983 13.0884 13.3334 13 13.3334H7C6.91159 13.3334 6.82681 13.2983 6.7643 13.2358C6.70179 13.1733 6.66667 13.0885 6.66667 13.0001V12.3334C6.66667 12.245 6.70179 12.1602 6.7643 12.0977C6.82681 12.0352 6.91159 12.0001 7 12.0001H13C13.0884 12.0001 13.1732 12.0352 13.2357 12.0977C13.2982 12.1602 13.3333 12.245 13.3333 12.3334V13.0001ZM13.3333 9.00008C13.3333 9.08849 13.2982 9.17327 13.2357 9.23578C13.1732 9.2983 13.0884 9.33341 13 9.33341H7C6.91159 9.33341 6.82681 9.2983 6.7643 9.23578C6.70179 9.17327 6.66667 9.08849 6.66667 9.00008V8.33341C6.66667 8.24501 6.70179 8.16022 6.7643 8.09771C6.82681 8.0352 6.91159 8.00008 7 8.00008H13C13.0884 8.00008 13.1732 8.0352 13.2357 8.09771C13.2982 8.16022 13.3333 8.24501 13.3333 8.33341V9.00008Z" fill="#213F7D"/>
<path d="M3.99996 15.6667C3.80218 15.6667 3.60884 15.7253 3.44439 15.8352C3.27994 15.9451 3.15177 16.1013 3.07608 16.284C3.00039 16.4667 2.98059 16.6678 3.01917 16.8618C3.05776 17.0557 3.153 17.2339 3.29285 17.3738C3.4327 17.5136 3.61089 17.6089 3.80487 17.6475C3.99885 17.686 4.19992 17.6662 4.38264 17.5905C4.56537 17.5149 4.72155 17.3867 4.83143 17.2222C4.94131 17.0578 4.99996 16.8644 4.99996 16.6667C5.00029 16.5353 4.97465 16.4051 4.92451 16.2836C4.87437 16.1621 4.80073 16.0517 4.7078 15.9588C4.61488 15.8659 4.50451 15.7923 4.38303 15.7421C4.26156 15.692 4.13137 15.6663 3.99996 15.6667V15.6667ZM3.99996 11.6667C3.80218 11.6667 3.60884 11.7253 3.44439 11.8352C3.27994 11.9451 3.15177 12.1013 3.07608 12.284C3.00039 12.4667 2.98059 12.6678 3.01917 12.8618C3.05776 13.0557 3.153 13.2339 3.29285 13.3738C3.4327 13.5136 3.61089 13.6089 3.80487 13.6475C3.99885 13.686 4.19992 13.6662 4.38264 13.5905C4.56537 13.5149 4.72155 13.3867 4.83143 13.2222C4.94131 13.0578 4.99996 12.8644 4.99996 12.6667C5.00029 12.5353 4.97465 12.4051 4.92451 12.2836C4.87437 12.1621 4.80073 12.0517 4.7078 11.9588C4.61488 11.8659 4.50451 11.7923 4.38303 11.7421C4.26156 11.692 4.13137 11.6663 3.99996 11.6667V11.6667ZM3.99996 7.66667C3.80218 7.66667 3.60884 7.72532 3.44439 7.8352C3.27994 7.94508 3.15177 8.10126 3.07608 8.28398C3.00039 8.46671 2.98059 8.66778 3.01917 8.86176C3.05776 9.05574 3.153 9.23392 3.29285 9.37377C3.4327 9.51363 3.61089 9.60887 3.80487 9.64745C3.99885 9.68604 4.19992 9.66623 4.38264 9.59055C4.56537 9.51486 4.72155 9.38669 4.83143 9.22224C4.94131 9.05779 4.99996 8.86445 4.99996 8.66667C5.00029 8.53525 4.97465 8.40507 4.92451 8.28359C4.87437 8.16212 4.80073 8.05175 4.7078 7.95883C4.61488 7.8659 4.50451 7.79225 4.38303 7.74212C4.26156 7.69198 4.13137 7.66634 3.99996 7.66667V7.66667ZM10.6666 2.66667C10.6666 1.95942 10.3857 1.28115 9.88558 0.781049C9.38548 0.280952 8.7072 0 7.99996 0C7.29272 0 6.61444 0.280952 6.11434 0.781049C5.61424 1.28115 5.33329 1.95942 5.33329 2.66667C4.62605 2.66667 3.94777 2.94762 3.44767 3.44772C2.94758 3.94781 2.66663 4.62609 2.66663 5.33333H13.3333C13.3333 4.62609 13.0523 3.94781 12.5522 3.44772C12.0521 2.94762 11.3739 2.66667 10.6666 2.66667ZM7.99996 3.66667C7.80218 3.66667 7.60884 3.60802 7.44439 3.49814C7.27994 3.38825 7.15177 3.23208 7.07608 3.04935C7.00039 2.86662 6.98059 2.66556 7.01917 2.47158C7.05776 2.2776 7.153 2.09941 7.29285 1.95956C7.4327 1.81971 7.61089 1.72447 7.80487 1.68588C7.99885 1.6473 8.19992 1.6671 8.38264 1.74279C8.56537 1.81847 8.72155 1.94665 8.83143 2.1111C8.94131 2.27555 8.99996 2.46889 8.99996 2.66667C9.00029 2.79808 8.97465 2.92827 8.92451 3.04974C8.87437 3.17121 8.80073 3.28158 8.7078 3.37451C8.61488 3.46743 8.50451 3.54108 8.38303 3.59122C8.26156 3.64136 8.13137 3.667 7.99996 3.66667V3.66667Z" fill="#213F7D"/>
</g>
<defs>
<clipPath id="clip0_55596_712">
<rect width="16" height="21.3333" fill="white"/>
</clipPath>
</defs>
</svg>
