<svg width="14" height="14" viewBox="0 0 14 14" fill="none" xmlns="http://www.w3.org/2000/svg">
<circle cx="6" cy="3" r="2" stroke="#545F7D" stroke-width="1.2"/>
<path fill-rule="evenodd" clip-rule="evenodd" d="M6.1 7.21932C3.94609 7.21932 2.2 8.96541 2.2 11.1193V11.2657V11.412V11.412C2.2 11.5125 2.28143 11.5939 2.38188 11.5939H9.81812C9.91857 11.5939 10 11.5125 10 11.412V11.412V11.2657V11.1193C10 8.96541 8.25391 7.21932 6.1 7.21932ZM9.99999 12.8145C10 12.8145 10 12.8145 10 12.8145V12.8145C10 12.8145 10 12.8145 10 12.8145H10.6C10.9314 12.8145 11.2 12.5458 11.2 12.2145V11.412V11.2657V11.1193C11.2 8.30266 8.91665 6.01932 6.1 6.01932C3.28335 6.01932 1 8.30266 1 11.1193V11.2657V11.412V12.2145C1 12.5458 1.26863 12.8145 1.6 12.8145H2.2C2.2 12.8145 2.2 12.8145 2.2 12.8145V12.8145C2.2 12.8145 2.2 12.8145 2.2 12.8145H9.99999Z" fill="#545F7D"/>
<path fill-rule="evenodd" clip-rule="evenodd" d="M9.41414 3.68586C9.17983 3.92018 9.17983 4.30008 9.41414 4.53439L9.97983 5.10008L9.41422 5.6657C9.1799 5.90001 9.1799 6.27991 9.41422 6.51422C9.64853 6.74854 10.0284 6.74854 10.2627 6.51422L10.8284 5.94861L11.394 6.51429C11.6284 6.7486 12.0083 6.7486 12.2426 6.51429C12.4769 6.27997 12.4769 5.90007 12.2426 5.66576L11.6769 5.10008L12.2426 4.53433C12.477 4.30001 12.477 3.92011 12.2426 3.6858C12.0083 3.45148 11.6284 3.45148 11.3941 3.6858L10.8284 4.25155L10.2627 3.68586C10.0284 3.45155 9.64846 3.45155 9.41414 3.68586Z" fill="#545F7D"/>
</svg>
