<svg width="26" height="26" viewBox="0 0 26 26" fill="none" xmlns="http://www.w3.org/2000/svg">
<path d="M6.87219 10.5935C6.87219 8.51218 8.46043 6.95121 8.46043 6.95121C10.5781 4.3496 14.8134 4.3496 16.931 6.95121C16.931 6.95121 18.5193 8.51219 18.5193 10.5935V12.6748C18.3572 15.8609 18.9064 17.6475 20.8296 20C21.6741 20.8657 21.5889 21.0377 20.8296 21H4.62869C3.84963 20.989 3.73325 20.8278 4.62869 20C6.2989 18.0718 6.94482 16.3237 6.87219 12.6748V10.5935Z" stroke="#213F7D" stroke-width="1.5"/>
<circle cx="12.9458" cy="3.25" r="1.5" stroke="#213F7D" stroke-width="1.5"/>
<path fill-rule="evenodd" clip-rule="evenodd" d="M9.6958 21C9.6958 22.6569 11.0389 24 12.6958 24C14.3527 24 15.6958 22.6569 15.6958 21H14.1958C14.1958 21.8284 13.5242 22.5 12.6958 22.5C11.8674 22.5 11.1958 21.8284 11.1958 21H9.6958Z" fill="#213F7D"/>
</svg>
