<svg width="40" height="40" viewBox="0 0 40 40" fill="none" xmlns="http://www.w3.org/2000/svg">
<circle opacity="0.1" cx="20" cy="20" r="20" fill="#5718FF"/>
<mask id="path-2-inside-1_55614_980" fill="white">
<path fill-rule="evenodd" clip-rule="evenodd" d="M26 29C26.5523 29 27.0075 28.5497 26.9296 28.003C26.4456 24.6092 23.5275 22 20 22C16.4725 22 13.5544 24.6092 13.0705 28.003C12.9925 28.5497 13.4477 29 14 29H26Z"/>
</mask>
<path d="M26.9296 28.003L28.2165 27.8194L26.9296 28.003ZM20 23.3C22.8713 23.3 25.2487 25.4242 25.6426 28.1865L28.2165 27.8194C27.6425 23.7942 24.1838 20.7 20 20.7V23.3ZM14.3575 28.1865C14.7514 25.4242 17.1288 23.3 20 23.3V20.7C15.8163 20.7 12.3575 23.7942 11.7835 27.8194L14.3575 28.1865ZM14 30.3H26V27.7H14V30.3ZM11.7835 27.8194C11.5761 29.2741 12.7884 30.3 14 30.3V27.7C14.0768 27.7 14.1648 27.7311 14.2382 27.8078C14.3196 27.8929 14.379 28.0353 14.3575 28.1865L11.7835 27.8194ZM25.6426 28.1865C25.621 28.0353 25.6804 27.8929 25.7618 27.8078C25.8352 27.7311 25.9232 27.7 26 27.7V30.3C27.2117 30.3 28.424 29.2741 28.2165 27.8194L25.6426 28.1865Z" fill="#5718FF" mask="url(#path-2-inside-1_55614_980)"/>
<circle cx="20" cy="18" r="4.35" stroke="#5718FF" stroke-width="1.3"/>
<path fill-rule="evenodd" clip-rule="evenodd" d="M25.7454 25H29.0826C29.5582 25 29.9788 24.6645 29.9965 24.1892C29.9988 24.1264 30 24.0634 30 24C30 21.2386 27.7614 19 25 19C24.9665 19 24.9331 19.0003 24.8998 19.001C24.803 19.4773 24.6385 19.9291 24.4167 20.3457C24.6067 20.3156 24.8016 20.3 25 20.3C26.9425 20.3 28.5353 21.7968 28.688 23.7H24.573C25.0156 24.0823 25.4099 24.5191 25.7454 25Z" fill="#5718FF"/>
<path fill-rule="evenodd" clip-rule="evenodd" d="M14.2547 25H10.9174C10.4418 25 10.0212 24.6645 10.0035 24.1892C10.0012 24.1264 10 24.0634 10 24C10 21.2386 12.2386 19 15 19C15.0335 19 15.0669 19.0003 15.1002 19.001C15.197 19.4773 15.3615 19.9291 15.5833 20.3457C15.3933 20.3156 15.1985 20.3 15 20.3C13.0575 20.3 11.4647 21.7968 11.312 23.7H15.4271C14.9844 24.0823 14.5902 24.5191 14.2547 25Z" fill="#5718FF"/>
<path fill-rule="evenodd" clip-rule="evenodd" d="M27.7 16C27.7 17.4912 26.4912 18.7 25 18.7C24.9838 18.7 24.9676 18.6999 24.9515 18.6996C24.8887 19.148 24.7664 19.5774 24.5929 19.9795C24.7268 19.9931 24.8626 20 25 20C27.2092 20 29 18.2091 29 16C29 13.7909 27.2092 12 25 12C23.7839 12 22.6946 12.5427 21.9609 13.3992C22.3729 13.575 22.7565 13.8045 23.1028 14.0789C23.5904 13.5973 24.2605 13.3 25 13.3C26.4912 13.3 27.7 14.5088 27.7 16Z" fill="#5718FF"/>
<path fill-rule="evenodd" clip-rule="evenodd" d="M15.0486 18.6996C15.0324 18.6999 15.0162 18.7 15 18.7C13.5088 18.7 12.3 17.4912 12.3 16C12.3 14.5088 13.5088 13.3 15 13.3C15.7395 13.3 16.4096 13.5973 16.8972 14.0789C17.2436 13.8045 17.6271 13.575 18.0391 13.3992C17.3055 12.5427 16.2161 12 15 12C12.7909 12 11 13.7909 11 16C11 18.2091 12.7909 20 15 20C15.1374 20 15.2733 19.9931 15.4072 19.9795C15.2336 19.5774 15.1113 19.148 15.0486 18.6996Z" fill="#5718FF"/>
<path fill-rule="evenodd" clip-rule="evenodd" d="M18.2875 19C17.9484 19 17.693 19.3153 17.8449 19.6184C18.2554 20.4376 19.1027 21 20.0814 21C21.0601 21 21.9074 20.4376 22.3179 19.6184C22.4698 19.3153 22.2143 19 21.8753 19V19C21.648 19 21.4529 19.1494 21.3258 19.3378C21.0563 19.7373 20.5995 20 20.0814 20C19.5632 20 19.1065 19.7373 18.837 19.3378C18.7099 19.1494 18.5148 19 18.2875 19V19Z" fill="#5718FF"/>
</svg>
